<svg width="88" height="90" viewBox="0 0 88 90" fill="none" xmlns="http://www.w3.org/2000/svg">
<path d="M27.6908 0C26.0482 0 24.6415 1.42678 24.6415 3.08798V16.3863C24.6407 17.6406 25.1335 18.8442 26.0121 19.7341C26.8907 20.624 28.0837 21.1278 29.3305 21.1354H38.7199C39.9671 21.1423 41.1609 21.6458 42.0401 22.5358C42.9194 23.4258 43.4125 24.6298 43.4117 25.8846V40.6068C43.4117 43.2201 45.5261 45.356 48.1064 45.356H62.4207C65.004 45.356 67.1154 47.4947 67.1154 50.1052V59.6035C67.1147 60.8583 67.6078 62.0624 68.487 62.9523C69.3663 63.8423 70.56 64.3458 71.8073 64.3527H84.9507C86.5904 64.3527 88 62.9288 88 61.2676V3.08798C88 1.42678 86.5904 0 84.9507 0H27.6908ZM24.6386 61.5049V31.3486C24.6386 28.7353 22.5271 26.5966 19.9468 26.5966H3.04926C1.40669 26.5966 0 28.0233 0 29.6845V86.912C0 88.5761 1.40669 90 3.04926 90H60.7781C62.4207 90 63.8274 88.5761 63.8274 86.912V71.2406C63.8282 69.9863 63.3354 68.7827 62.4568 67.8928C61.5782 67.0029 60.3852 66.4991 59.1384 66.4914H29.5663C26.7501 66.4914 24.6386 64.3527 24.6386 61.5049Z" fill="#0157FF"/>
</svg>
