<svg width="45" height="54" viewBox="0 0 45 54" fill="none" xmlns="http://www.w3.org/2000/svg">
<mask id="mask0" style="mask-type:alpha" maskUnits="userSpaceOnUse" x="0" y="0" width="43" height="29">
<path d="M0.800049 22.6449L29.4139 22.8758C29.4139 22.8758 35.7293 23.6782 41.1238 28.4163C41.4307 28.6837 42.6312 28.4163 42.6312 28.4163L42.4853 0L0.800049 0.0486267V22.6449Z" fill="white"/>
</mask>
<g mask="url(#mask0)">
<path fill-rule="evenodd" clip-rule="evenodd" d="M36.5523 6.40055C33.1485 3.59843 28.4651 2.19434 22.5022 2.19434C14.5305 2.19434 10.9959 2.19434 7.64676 2.19434V4.27009C7.64676 4.27009 15.7097 4.27009 22.2287 4.27009C27.298 4.27009 31.8872 5.31557 34.6893 7.73475C37.4914 10.157 39.6158 13.7614 39.6158 18.2108C39.6158 22.5051 37.7771 25.6871 34.8625 28.0942C31.948 30.5012 26.751 31.5619 21.5479 31.5619C15.3389 31.5619 4.79602 31.5619 4.79602 31.5619V33.6376C4.79602 33.6376 19.0589 33.6346 21.6634 33.6346C27.9393 33.6346 32.8415 32.27 36.37 29.5469C39.8985 26.8208 41.6612 22.9884 41.6612 18.0436C41.6612 13.0867 39.9592 9.20571 36.5523 6.40055Z" fill="white"/>
<path fill-rule="evenodd" clip-rule="evenodd" d="M35.2941 9.40925C33.1758 7.80152 30.7414 6.50684 23.8547 6.50684C16.4269 6.50988 15.5182 6.50684 12.397 6.50684V8.53092C12.397 8.53092 17.5241 8.46406 23.5994 8.53092C29.471 8.59171 31.6258 9.25425 33.6013 10.7161C36.1299 12.5852 37.6981 14.8919 37.6981 18.1195C37.6981 21.2316 36.1056 23.435 33.5648 25.3041C30.9663 27.2188 26.9941 27.2401 25.3773 27.2765C24.7664 27.2917 16.8706 27.2765 16.8706 27.2765V29.3006C16.8706 29.3006 20.8003 29.3553 23.2286 29.2976C28.8024 29.173 32.109 28.8417 35.1877 26.5532C38.078 24.4106 39.6067 21.5811 39.6067 17.9979C39.6067 13.272 37.2422 10.8893 35.2941 9.40925Z" fill="white"/>
<path fill-rule="evenodd" clip-rule="evenodd" d="M34.2703 12.0806C32.6808 11.0838 31.2858 10.4121 24.706 10.4121C18.0198 10.4121 19.2811 10.4121 16.4698 10.4121V11.7433C16.4698 11.7433 19.0106 11.7433 24.478 11.7433C30.3072 11.7433 32.5167 12.7796 33.1853 13.1899C34.4952 13.9923 36.2214 15.2991 36.2214 17.9614C36.2214 19.6633 35.2154 21.7999 33.7293 22.6387C32.3738 23.4015 29.8969 24.0853 25.5326 24.0853C24.9825 24.0853 -1.37012 24.0853 -1.37012 24.0853V25.4165C-1.37012 25.4165 23.4447 25.4165 25.6329 25.4165C30.8937 25.4165 32.699 24.833 34.5529 23.8088C36.4129 22.7846 37.6529 20.6784 37.6529 17.9736C37.6529 14.9526 35.9661 13.1413 34.2703 12.0806Z" fill="white"/>
</g>
<path fill-rule="evenodd" clip-rule="evenodd" d="M39.5079 26.7664C36.104 23.9612 31.4176 22.5602 25.4578 22.5602C17.483 22.5602 18.8719 22.5571 15.5197 22.5571V24.6329C15.5197 24.6329 18.6622 24.6329 25.1812 24.6329C30.2506 24.6329 34.8428 25.6784 37.6449 28.0975C40.447 30.5198 42.5683 34.1242 42.5683 38.5766C42.5683 42.8679 40.7327 46.0499 37.8181 48.457C34.9035 50.864 29.7035 51.9247 24.5005 51.9247C18.2945 51.9247 7.75159 51.9247 7.75159 51.9247V54.0004C7.75159 54.0004 22.0114 53.9974 24.619 53.9974C30.8949 53.9974 35.794 52.6358 39.3225 49.9097C42.851 47.1866 44.6167 43.3511 44.6167 38.4095C44.6167 33.4495 42.9148 29.5685 39.5079 26.7664Z" fill="white"/>
<path fill-rule="evenodd" clip-rule="evenodd" d="M38.2472 29.772C36.1289 28.1674 33.6946 26.8696 26.8078 26.8696C19.377 26.8727 14.3533 26.8696 11.2321 26.8696V28.8937C11.2321 28.8937 20.4742 28.8269 26.5525 28.8937C32.4242 28.9545 34.5759 29.617 36.5514 31.0789C39.083 32.951 40.6512 35.2547 40.6512 38.4823C40.6512 41.5944 39.0587 43.7978 36.518 45.6699C33.9195 47.5816 29.9473 47.6059 28.3274 47.6424C27.7165 47.6545 19.8208 47.6424 19.8208 47.6424V49.6634C19.8208 49.6634 23.7504 49.7181 26.1817 49.6634C31.7525 49.5358 35.0622 49.2045 38.1409 46.919C41.0281 44.7734 42.5568 41.9439 42.5568 38.3607C42.5568 33.6379 40.1954 31.2521 38.2472 29.772Z" fill="white"/>
<path fill-rule="evenodd" clip-rule="evenodd" d="M14.5677 36.6399H29.1649V35.5093H14.5677V36.6399Z" fill="white"/>
<path fill-rule="evenodd" clip-rule="evenodd" d="M20.5879 40.5941H29.0793V39.6216H20.5879V40.5941Z" fill="white"/>
<path fill-rule="evenodd" clip-rule="evenodd" d="M7.75159 36.6399H12.0763V35.5093H7.75159V36.6399Z" fill="white"/>
<path fill-rule="evenodd" clip-rule="evenodd" d="M5.05396 40.673H18.1893V39.5425H5.05396V40.673Z" fill="white"/>
<path fill-rule="evenodd" clip-rule="evenodd" d="M8.29114 11.6552H13.4091V10.7222H8.29114V11.6552Z" fill="white"/>
<path fill-rule="evenodd" clip-rule="evenodd" d="M4.72815 19.2227H16.4502V18.1377H4.72815V19.2227Z" fill="white"/>
<path fill-rule="evenodd" clip-rule="evenodd" d="M5.05396 49.5234H17.4143V48.168H5.05396V49.5234Z" fill="white"/>
<path fill-rule="evenodd" clip-rule="evenodd" d="M1.97192 53.9179H5.06276V51.9546H1.97192V53.9179Z" fill="white"/>
<path fill-rule="evenodd" clip-rule="evenodd" d="M9.6991 15.9102H29.1073V14.8252H9.6991V15.9102Z" fill="white"/>
<path fill-rule="evenodd" clip-rule="evenodd" d="M19.4023 19.2227H28.7387V18.1377H19.4023V19.2227Z" fill="white"/>
<path fill-rule="evenodd" clip-rule="evenodd" d="M37.2233 32.6464C35.6307 31.683 34.2357 31.0356 27.659 31.0356C20.9728 31.0356 19.9729 31.0356 17.1647 31.0356V32.3212C17.1647 32.3212 21.9605 32.3212 27.428 32.3212C33.2571 32.3212 35.4697 33.3211 36.1383 33.7192C37.4451 34.4942 39.1744 35.7524 39.1744 38.3236C39.1744 39.9678 38.1684 42.0283 36.6792 42.8367C35.3238 43.5753 32.8468 44.2348 28.4826 44.2348C27.9325 44.2348 1.58289 44.2348 1.58289 44.2348V45.5203C1.58289 45.5203 26.3977 45.5173 28.5829 45.5173C33.8467 45.5173 35.652 44.9551 37.5059 43.9673C39.3628 42.9766 40.6028 40.9433 40.6028 38.3327C40.6028 35.4181 38.9191 33.6706 37.2233 32.6464Z" fill="white"/>
</svg>
