<svg width="82" height="90" viewBox="0 0 82 90" fill="none" xmlns="http://www.w3.org/2000/svg">
<path fill-rule="evenodd" clip-rule="evenodd" d="M25.9227 45.0091L52.5219 71.6693L69.3114 54.8439C72.3136 52.1349 76.9066 52.2554 79.7632 55.1181C82.6199 57.9808 82.7401 62.5837 80.0369 65.5923L57.8805 87.8001C54.9044 90.7333 50.1311 90.7333 47.155 87.8001L15.1889 55.7575V74.8028C15.1889 79.0061 11.7888 82.4135 7.59447 82.4135C3.40016 82.4135 0 79.0061 0 74.8028V15.1906C0 10.9873 3.40016 7.57986 7.59447 7.57986C11.7888 7.57986 15.1889 10.9873 15.1889 15.1906V34.2359L47.1509 2.20153C50.1261 -0.733843 54.9012 -0.733843 57.8764 2.20153L80.0493 24.4052C82.7525 27.4138 82.6322 32.0167 79.7756 34.8794C76.919 37.7421 72.326 37.8626 69.3238 35.1536L52.5343 18.3283L25.9227 45.0091ZM52.5343 37.3901C49.4589 37.3885 46.6854 39.2437 45.5073 42.0906C44.3293 44.9375 44.9787 48.2152 47.1527 50.3951C49.3268 52.5749 52.5972 53.2275 55.4386 52.0485C58.2801 50.8695 60.1329 48.0911 60.1329 45.0091C60.134 42.9884 59.334 41.0501 57.909 39.6205C56.484 38.1909 54.5506 37.3871 52.5343 37.386V37.3901Z" fill="#23AF91"/>
</svg>
