<svg width="54" height="54" viewBox="0 0 54 54" fill="none" xmlns="http://www.w3.org/2000/svg">
<path d="M17.2145 0C16.2289 0 15.3849 0.856068 15.3849 1.85279V9.83176C15.3845 10.5843 15.6801 11.3065 16.2073 11.8404C16.7345 12.3744 17.4503 12.6767 18.1983 12.6813H23.832C24.5803 12.6854 25.2966 12.9875 25.8241 13.5215C26.3516 14.0555 26.6475 14.7779 26.6471 15.5308V24.3641C26.6471 25.9321 27.9157 27.2136 29.4639 27.2136H38.0525C39.6024 27.2136 40.8693 28.4968 40.8693 30.0631V35.7621C40.8688 36.515 41.1647 37.2374 41.6923 37.7714C42.2198 38.3054 42.9361 38.6075 43.6844 38.6116H51.5705C52.5543 38.6116 53.4 37.7573 53.4 36.7606V1.85279C53.4 0.856068 52.5543 0 51.5705 0H17.2145ZM15.3832 36.903V18.8092C15.3832 17.2412 14.1163 15.9579 12.5681 15.9579H2.42959C1.44405 15.9579 0.600037 16.814 0.600037 17.8107V52.1472C0.600037 53.1457 1.44405 54 2.42959 54H37.0669C38.0525 54 38.8965 53.1457 38.8965 52.1472V42.7444C38.8969 41.9918 38.6013 41.2696 38.0741 40.7357C37.547 40.2017 36.8311 39.8994 36.0831 39.8948H18.3398C16.6501 39.8948 15.3832 38.6116 15.3832 36.903Z" fill="#0157FF"/>
</svg>
