<svg width="48" height="54" viewBox="0 0 48 54" fill="none" xmlns="http://www.w3.org/2000/svg">
<path d="M29.2785 15.6778L24.889 13.1172C24.4783 12.9104 24.0249 12.8027 23.5651 12.8027C23.1054 12.8027 22.652 12.9104 22.2413 13.1172L17.8518 15.6778C16.9112 16.2352 16.8937 17.1409 17.8518 17.6809L22.2413 20.2763C22.6494 20.4914 23.1038 20.6038 23.5651 20.6038C24.0265 20.6038 24.4808 20.4914 24.889 20.2763L29.2785 17.6809C29.4855 17.6076 29.6647 17.4719 29.7915 17.2925C29.9182 17.1132 29.9863 16.899 29.9863 16.6793C29.9863 16.4597 29.9182 16.2455 29.7915 16.0661C29.6647 15.8868 29.4855 15.7511 29.2785 15.6778Z" fill="#4231C8"/>
<path d="M46.4036 12.5076L25.1875 0.314461C24.7769 0.107697 24.3235 0 23.8637 0C23.4039 0 22.9505 0.107697 22.5399 0.314461L1.32383 12.5076C0.940497 12.7625 0.621464 13.1028 0.391772 13.5017C0.16208 13.9006 0.0279802 14.3474 0 14.8069L0 39.1931C0.0279802 39.6526 0.16208 40.0994 0.391772 40.4983C0.621464 40.8972 0.940497 41.2375 1.32383 41.4924L22.5399 53.6855C22.9505 53.8923 23.4039 54 23.8637 54C24.3235 54 24.7769 53.8923 25.1875 53.6855L46.4036 41.4924C46.7869 41.2375 47.1059 40.8972 47.3356 40.4983C47.5653 40.0994 47.6994 39.6526 47.7274 39.1931V14.8069C47.6994 14.3474 47.5653 13.9006 47.3356 13.5017C47.1059 13.1028 46.7869 12.7625 46.4036 12.5076ZM36.9626 18.1687L24.8914 25.2755C24.4833 25.4906 24.0289 25.6031 23.5676 25.6031C23.1063 25.6031 22.6519 25.4906 22.2438 25.2755L14.5795 20.7815C13.6389 20.2067 12.8376 20.6596 12.8376 21.757V35.361C12.8706 35.5763 12.8388 35.7966 12.7462 35.9938C12.6535 36.191 12.5043 36.3562 12.3175 36.4683C12.1307 36.5804 11.9147 36.6343 11.6972 36.6232C11.4796 36.6122 11.2702 36.5366 11.0957 36.4061L9.78934 35.7268C9.39537 35.4888 9.06559 35.158 8.82878 34.7633C8.59196 34.3686 8.45529 33.922 8.43068 33.4624V18.6913C8.45866 18.2318 8.59276 17.785 8.82245 17.3861C9.05214 16.9871 9.37118 16.6469 9.75451 16.392L22.2263 9.14577C22.637 8.93901 23.0904 8.83131 23.5502 8.83131C24.0099 8.83131 24.4633 8.93901 24.874 9.14577L36.9452 16.1133C37.1728 16.171 37.375 16.3024 37.52 16.4872C37.665 16.6719 37.7447 16.8994 37.7467 17.1343C37.7487 17.3691 37.6728 17.598 37.531 17.7851C37.3891 17.9723 37.1892 18.1072 36.9626 18.1687Z" fill="#4231C8"/>
</svg>
