<svg width="126" height="81" viewBox="0 0 126 81" fill="none" xmlns="http://www.w3.org/2000/svg">
<path d="M62.6786 26.1142L42.1072 0.399902H6.75C2.25 1.04276 0 4.25704 0 7.79276C0 8.43562 0.321429 9.3999 0.642857 10.3642L38.25 57.2928L62.6786 26.1142Z" fill="#3251DF"/>
<path d="M62.6811 26.1143L37.9311 56.9714L54.9668 78.1857C57.2168 79.7928 59.7882 80.7571 62.6811 80.7571C65.5739 80.7571 68.4668 79.4714 70.7168 77.8643L87.4311 56.9714L62.6811 26.1143Z" fill="#3A1F54"/>
<path d="M72.972 0.399902H42.1149L62.6863 26.1142L81.3292 2.97133C79.0792 1.36419 76.1863 0.399902 72.972 0.399902Z" fill="#B15EE6"/>
<path d="M102.214 28.0426L85.8214 7.47119C84.2143 5.54262 82.9286 3.93548 81.3214 2.97119L62.6786 26.114L87.4286 57.2926L103.821 36.7212C105.429 32.5426 102.536 28.364 102.214 28.0426Z" fill="#AB0354"/>
<path d="M125.996 7.1499C125.996 2.97133 122.138 1.04276 118.924 0.399902H89.0312C90.6384 0.721331 91.9241 2.32847 92.8884 3.61419L107.996 22.5785C108.96 23.8642 109.924 25.4713 110.567 27.7213L125.674 8.75705C125.996 8.43562 125.996 7.79276 125.996 7.1499Z" fill="#FF505D"/>
</svg>
