<svg width="54" height="54" viewBox="0 0 54 54" fill="none" xmlns="http://www.w3.org/2000/svg">
<path fill-rule="evenodd" clip-rule="evenodd" d="M27.2031 53.9992C21.8545 54.0395 16.6145 52.4902 12.1478 49.5479C7.68101 46.6057 4.18876 42.403 2.11403 37.4731C0.0392886 32.5431 -0.524471 27.1081 0.494288 21.8573C1.51305 16.6065 4.06839 11.7766 7.83621 7.98028C11.604 4.18392 16.4145 1.59228 21.6575 0.533914C26.9004 -0.524451 32.3396 -0.00193879 37.285 2.03553C42.2305 4.07299 46.4594 7.53339 49.4353 11.9778C52.4111 16.4222 53.9999 21.6505 54 26.9992C54.0182 34.1305 51.2072 40.9777 46.1837 46.0392C41.1602 51.1008 34.3343 53.9635 27.2031 53.9992ZM27.2031 4.00595C22.6483 3.973 18.1863 5.29361 14.383 7.80019C10.5798 10.3068 7.60668 13.8865 5.8408 18.0852C4.07492 22.284 3.59581 26.9124 4.46427 31.3838C5.33272 35.8552 7.5096 39.9679 10.7188 43.2003C13.928 46.4327 18.0249 48.6393 22.4899 49.54C26.955 50.4407 31.5869 49.9949 35.7982 48.2594C40.0095 46.5238 43.6106 43.5766 46.1445 39.7915C48.6784 36.0065 50.0312 31.5542 50.0311 26.9992C50.0454 20.9252 47.6502 15.0935 43.3708 10.7831C39.0913 6.47269 33.277 4.03539 27.2031 4.00595ZM28.1664 23.2949L33.3397 16.966C33.5239 16.7401 33.641 16.467 33.6776 16.1778C33.7141 15.8887 33.6686 15.595 33.5463 15.3304C33.4241 15.0658 33.2299 14.8411 32.986 14.6815C32.7421 14.5219 32.4582 14.4341 32.1668 14.4281C31.943 14.4293 31.7222 14.4791 31.5196 14.5742C31.3171 14.6693 31.1377 14.8075 30.9939 14.9789L26.1814 20.8541L21.3689 14.9789C21.2277 14.8045 21.0489 14.6641 20.8457 14.5687C20.6426 14.4733 20.4204 14.4253 20.196 14.4281H16.226C15.9331 14.4308 15.6469 14.5165 15.4009 14.6754C15.1548 14.8344 14.959 15.0598 14.8361 15.3257C14.7132 15.5916 14.6684 15.8869 14.7068 16.1773C14.7452 16.4677 14.8653 16.7412 15.0531 16.966L22.2113 25.7141L13.068 36.9027C12.9325 37.0561 12.829 37.2351 12.7635 37.429C12.698 37.623 12.6719 37.8279 12.6867 38.032C12.7015 38.2362 12.7569 38.4355 12.8496 38.6179C12.9423 38.8004 13.0705 38.9624 13.2268 39.0946C13.383 39.2269 13.564 39.3267 13.7593 39.3881C13.9545 39.4495 14.16 39.4712 14.3638 39.4522C14.5676 39.4331 14.7656 39.3737 14.9461 39.2771C15.1265 39.1806 15.2859 39.049 15.4149 38.89L24.1964 28.1657L28.1664 23.2949ZM40.1652 14.4281C39.9416 14.4298 39.7209 14.4796 39.5185 14.5747C39.316 14.6698 39.1365 14.8079 38.9924 14.9789L30.2444 25.7141L26.2743 30.5741L21.1011 36.9027C20.8376 37.2138 20.7084 37.6168 20.742 38.0231C20.7757 38.4294 20.9693 38.8058 21.2804 39.0693C21.5914 39.3329 21.9944 39.4621 22.4007 39.4285C22.807 39.3948 23.1833 39.2011 23.4468 38.89L28.2593 33.0257L33.0707 38.89C33.2122 39.0644 33.3913 39.2044 33.5946 39.2998C33.7979 39.3952 34.0201 39.4435 34.2447 39.4408H38.2072C38.5005 39.4391 38.7872 39.3539 39.0338 39.1951C39.2804 39.0363 39.4767 38.8106 39.5997 38.5444C39.7228 38.2781 39.7674 37.9823 39.7285 37.6916C39.6896 37.401 39.5688 37.1273 39.3801 36.9027L32.2229 28.1657L41.3662 16.966C41.5481 16.7369 41.6622 16.4616 41.6955 16.171C41.7288 15.8804 41.68 15.5862 41.5546 15.322C41.4292 15.0577 41.2323 14.834 40.9861 14.676C40.74 14.518 40.4545 14.4321 40.162 14.4281" fill="#FFBE40"/>
</svg>
