<svg width="90" height="85" viewBox="0 0 90 85" fill="none" xmlns="http://www.w3.org/2000/svg">
<path d="M21.4177 46.6739L23.7947 28.7723L3.14453 14.436L22.0119 20.8241L26.4688 13.9903L42.7362 3.88818L78.6139 23.6468L80.4708 53.8048L64.5005 76.0149L51.8728 77.9462L58.4095 65.9869V54.4734L53.6555 45.4854L48.8272 42.2914L41.3991 49.9422V58.0389L35.6052 63.4613L28.2515 64.3527L24.9832 66.2098L19.6349 64.5013L17.4065 56.4789L21.4177 50.8336V46.6739Z" fill="white"/>
<path d="M54.3943 14.2877C50.4575 13.4705 46.1492 13.6934 46.1492 13.6934C46.1492 13.6934 44.7378 20.2301 35.9727 21.9385C36.047 21.9385 47.5605 25.8755 54.3943 14.2877Z" fill="#94A6C3"/>
<path d="M57.9633 73.5638C62.7173 69.8498 66.2827 64.7245 67.9169 58.9306C67.9911 58.7077 68.6597 58.3363 69.1054 58.0392C69.8482 57.5935 70.591 57.222 70.7396 56.6278C71.0367 54.9194 71.1853 53.1367 71.1853 51.3539C71.1853 50.6853 70.5167 50.0169 69.8482 49.3483C69.3282 48.9026 68.8083 48.3827 68.8083 48.0112C68.0655 41.2518 64.9457 34.9378 59.9688 30.3324L59.4489 30.8524C64.2771 35.3835 67.3969 41.5489 68.0655 48.0856C68.1397 48.6798 68.7339 49.2741 69.3282 49.8683C69.8482 50.314 70.4425 50.9825 70.4425 51.2796C70.4425 52.9881 70.2939 54.6965 69.9968 56.405C69.9224 56.7022 69.254 56.9993 68.7339 57.2964C67.9911 57.6677 67.3227 58.0392 67.1741 58.6335C65.3914 64.9473 61.3058 70.444 55.8834 74.0095C56.849 71.9296 59.8946 65.1702 61.5288 61.7533L61.2316 50.7597L51.7979 41.6231L46.4497 42.3659L40.5816 51.8738C40.5816 51.8738 43.3299 55.3651 39.4673 59.4505C35.679 63.4616 32.7078 64.353 32.7078 64.353L29.9593 62.8674C30.7765 61.8275 32.4107 60.2676 33.6734 59.2277C35.8276 57.445 37.9817 57.2964 37.9817 55.3651C38.056 51.354 33.7477 52.4681 33.7477 52.4681L32.1878 53.9537L31.5193 59.4505L28.251 63.536L27.8795 63.4616L22.5312 62.2731C22.5312 62.2731 25.7996 60.5648 26.3197 58.6335C26.8395 56.7764 25.2797 50.6111 25.2054 50.2396C25.2797 50.314 26.7653 51.5767 27.4338 53.6566C28.6223 50.3882 30.1823 47.2684 30.6279 46.9713C31.0736 46.6742 37.0903 43.4802 37.0903 43.4802L35.0848 48.754L36.5704 47.937L40.1359 39.1719C40.1359 39.1719 43.627 37.4634 46.2269 37.4634C50.9065 37.3892 57.8147 31.6695 54.6949 21.4187C55.5863 21.7902 71.0367 29.5154 73.7108 44.6687C75.7163 56.3307 69.1054 67.25 57.9633 73.5638Z" fill="#94A6C3"/>
<path d="M40.2827 15.9225C41.9912 13.9169 41.3226 10.9457 41.3226 10.9457L36.3459 18.2995C36.2715 18.2995 38.1286 18.3737 40.2827 15.9225Z" fill="#1B314F"/>
<path d="M23.5723 56.1086L24.1665 53.1373C24.1665 53.1373 21.7152 57.4456 21.4924 58.0399C21.2695 58.7085 21.641 59.897 22.6065 59.8226C23.5723 59.7484 24.7607 58.337 24.7607 57.2971C24.7607 55.96 23.5723 56.1086 23.5723 56.1086Z" fill="#1B314F"/>
<path d="M67.6935 8.86579C67.6935 8.86579 71.4077 9.01435 75.2701 9.46003C66.5794 2.6262 58.3341 0.620618 51.6488 0.620618C42.438 0.620618 36.1986 4.40894 35.8271 4.63178L38.7242 0.0263719C38.7242 0.0263719 27.1362 -1.08784 23.0508 11.1685C22.0109 8.56866 21.0452 4.78034 21.0452 4.78034C21.0452 4.78034 15.0285 10.0543 17.8512 18.8194C10.943 16.2939 1.0637 12.8026 0.692297 12.7284C0.172331 12.6541 0.0237699 12.877 0.0237699 12.877C0.0237699 12.877 -0.124792 13.0997 0.320893 13.4712C1.13798 14.1397 16.7369 25.6533 20.1538 27.8817C19.411 30.5558 19.411 31.8185 20.1538 33.0814C21.1937 34.7897 21.2681 35.6811 21.1195 36.944C20.971 38.2067 19.6339 49.126 19.3368 50.4631C19.0397 51.8001 15.9199 56.5541 16.0684 57.9653C16.217 59.3768 18.1483 65.3934 19.8568 66.062C21.1195 66.5077 24.2393 67.4733 26.3192 67.4733C27.062 67.4733 27.7306 67.3247 28.0277 67.0276C29.2904 65.9135 29.6617 65.6906 30.5533 65.6906C30.6275 65.6906 30.7018 65.6906 30.776 65.6906C31.1475 65.6906 31.5932 65.7649 32.1131 65.7649C33.3016 65.7649 34.8615 65.542 35.9757 64.5021C37.6099 62.8679 40.4325 60.6395 41.3239 59.5995C42.4382 58.1883 43.0324 56.257 42.7351 54.3257C42.5124 52.5429 43.478 50.9829 44.5923 49.4231C46.0037 47.566 48.6034 44.2235 48.6034 44.2235C53.7289 48.0861 56.9229 53.9542 56.9229 60.4909C56.9229 72.0787 46.8207 81.4381 34.3415 81.4381C32.4102 81.4381 30.5533 81.2153 28.6962 80.7696C34.4159 82.7751 39.244 83.4437 43.181 83.4437C51.5746 83.4437 56.0315 80.3981 56.0315 80.3981C56.0315 80.3981 54.4715 82.4038 51.946 84.7064C52.0203 84.7064 52.0203 84.7064 52.0203 84.7064C65.9108 82.7751 72.6704 71.3359 72.6704 71.3359C72.6704 71.3359 72.1503 75.0499 71.4819 77.5755C89.9777 63.6851 86.8579 46.3033 86.7837 45.7091C86.9323 45.9319 88.7892 48.1603 89.755 49.3488C92.7262 18.7451 67.6935 8.86579 67.6935 8.86579ZM39.244 57.7426C38.9469 58.1139 37.6842 59.2282 36.7927 60.0452C35.9015 60.8624 34.9357 61.6794 34.1929 62.4222C33.8958 62.7193 33.3016 62.8679 32.4102 62.8679C32.1131 62.8679 31.816 62.8679 31.593 62.8679C31.4446 62.8679 31.2961 62.8679 31.1475 62.8679C30.999 62.8679 30.9246 62.8679 30.8502 62.8679C30.6275 62.8679 30.4045 62.8679 30.1818 62.8679C31.2961 61.3823 34.5643 57.9653 35.6786 57.2225C37.0156 56.3312 37.6841 55.4398 36.8671 53.88C36.0499 52.32 33.8958 52.6915 33.8958 52.6915C33.8958 52.6915 35.1587 52.1714 36.2728 52.1714C34.8615 51.8001 33.0788 52.1714 32.2616 52.9886C31.3703 53.8056 31.5188 56.7027 31.1475 58.5596C30.776 60.4909 29.5132 61.4566 27.582 63.2394C26.5419 64.2049 25.7993 64.5021 25.205 64.5021C23.9422 64.2793 22.4566 63.9078 21.4166 63.5365C20.6738 62.5708 19.5595 59.3768 19.2624 58.0397C19.4853 57.2969 20.3767 55.7369 20.8224 54.8456C21.7138 53.1372 22.2338 52.1714 22.3822 51.2801C22.6793 50.0174 23.6451 42.2178 24.0166 38.9495C24.9821 40.2123 26.3192 42.2922 26.0221 43.6292C28.1763 40.5836 26.6163 37.6124 25.8735 36.4239C25.205 35.2354 24.3137 32.8584 25.0565 30.3329C25.7993 27.8073 28.4734 20.8249 28.4734 20.8249C28.4734 20.8249 29.3648 22.3849 30.6275 22.0878C31.8903 21.7907 42.0667 6.4888 42.0667 6.4888C42.0667 6.4888 44.8152 12.5055 41.9181 16.8881C38.9469 21.2706 36.0499 22.0878 36.0499 22.0878C36.0499 22.0878 40.1354 22.8306 43.9238 20.0821C45.4836 23.722 46.9692 27.5102 47.0436 28.0303C46.8207 28.5501 43.8494 35.6811 43.5523 36.1268C43.4038 36.2754 42.3638 36.5725 41.621 36.721C40.3583 37.0925 39.6155 37.3153 39.3184 37.5382C38.7983 37.9839 36.4214 44.5206 35.3071 47.7146C33.9702 48.0861 32.633 48.8289 31.6674 50.3145C32.1874 49.943 33.8214 49.7203 35.0101 49.5717C36.0499 49.4973 39.244 51.2059 40.0612 54.3999C40.0612 54.4742 40.0612 54.4742 40.0612 54.5484C40.2098 55.7369 39.8383 56.8512 39.244 57.7426ZM32.2616 58.634C32.9302 57.6682 32.8559 56.034 32.9302 55.5142C33.0044 54.9941 33.153 54.0285 33.7473 53.88C34.3415 53.7314 35.7529 53.9542 35.7529 54.9941C35.7529 55.9599 34.713 56.1826 33.9702 56.8512C33.4501 57.3711 32.4102 58.4854 32.2616 58.634ZM61.8996 44.4462C62.6424 40.658 62.7168 37.3896 62.4938 34.7155C65.3909 38.5781 67.1736 43.2577 67.6935 48.0861C67.7679 48.6803 68.3621 49.2746 68.9564 49.8688C69.4762 50.3145 70.0705 50.9088 70.0705 51.2801C70.0705 52.9886 69.9219 54.697 69.6248 56.4055C69.5506 56.6283 68.882 56.9998 68.3621 57.2969C67.6193 57.6682 66.9509 58.0397 66.8021 58.634C65.1681 64.3535 61.6768 69.4046 56.9971 72.9701C63.9053 65.7649 67.2478 53.88 61.8996 44.4462ZM57.22 73.6387C62.0482 69.9246 65.7622 64.725 67.3964 58.8567C67.4707 58.634 68.1394 58.2625 68.5849 57.9653C69.3277 57.594 70.0705 57.1483 70.219 56.5541C70.5162 54.8456 70.6647 53.0628 70.6647 51.2801C70.6647 50.6116 69.9963 49.943 69.3277 49.2746C68.9564 48.8289 68.3621 48.3088 68.3621 47.9375C67.7679 42.5149 65.6136 37.3896 62.2711 33.1556C60.7855 24.2419 54.843 21.4936 54.6944 21.4192C54.843 21.6421 58.7056 27.2131 56.0315 33.7498C53.283 40.3609 46.2264 39.3209 45.6322 39.3951C45.0379 39.3951 42.7351 42.3664 39.8383 47.8632C39.467 47.7146 37.907 47.3433 36.1242 47.6404C37.4613 43.9264 39.467 38.6523 39.8383 38.2067C39.9868 38.0581 41.1011 37.761 41.8439 37.5382C43.2552 37.1667 43.9238 36.944 44.1466 36.6468C44.2951 36.4239 45.0379 34.7155 45.7807 32.9328C46.4492 32.9328 48.1577 32.7842 48.3063 32.7099C48.4549 32.5613 49.8661 28.9216 49.8661 28.476C49.8661 28.1045 46.9692 20.8993 45.8551 18.1508C46.375 17.5566 46.895 16.8138 47.4149 15.9968C62.6424 17.631 74.5273 30.5558 74.5273 46.229C74.5273 58.2625 67.4707 68.7361 57.22 73.6387Z" fill="#1B314F"/>
<path d="M37.466 33.527C38.8775 31.8928 38.1347 28.8472 35.5347 28.3274C36.2034 26.7674 37.1689 23.6476 37.1689 23.6476C37.1689 23.6476 29.5923 35.5325 28.9238 35.7554C28.2552 35.9782 27.5868 33.3785 27.5868 33.3785C26.1754 38.8009 29.9638 39.5437 30.4095 37.8353C32.4893 37.3153 36.0548 35.0868 37.466 33.527Z" fill="#1B314F"/>
<path d="M31 36.4244L34.8626 29.8135C34.8626 29.8135 37.091 30.9276 35.9769 32.7103C34.5655 34.7902 31 36.4244 31 36.4244Z" fill="#FFD923"/>
<path d="M78.761 67.0276C77.6467 68.5132 76.3841 70.073 74.8984 71.5586C84.4806 53.137 75.3441 36.2753 74.9726 35.6067C75.6412 36.2753 76.3097 37.0181 76.9039 37.6866C84.2578 45.8574 85.1492 58.1139 78.761 67.0276Z" fill="#D82122"/>
<path d="M87.6743 43.332C84.3315 34.3441 79.5776 26.6931 69.1041 19.785C59.0019 13.0998 48.1569 13.6196 47.5626 13.694C47.4883 13.694 47.4141 13.694 47.4141 13.694C47.7854 13.5454 48.1569 13.4711 48.5282 13.3969C50.831 12.6541 53.8022 12.0598 56.7734 11.6884C64.6472 10.5742 72.5952 13.2483 78.0178 18.9678C78.0919 19.0422 78.092 19.0422 78.1663 19.1164C84.3315 25.6531 87.5257 33.824 87.6743 43.332Z" fill="#D82122"/>
<path d="M66.7265 6.56347C55.6586 4.48361 48.5276 5.52354 43.4024 7.45484C43.2538 6.86059 42.7337 5.6721 42.2881 4.70645C40.7282 6.56347 39.0941 8.79189 38.0541 10.2032C35.2315 12.1345 34.043 13.9916 34.043 13.9916C35.6771 8.42049 40.4311 4.26076 46.225 3.22083C47.8592 2.92371 49.6419 2.77515 51.5732 2.77515C56.6985 2.84943 61.824 4.1122 66.7265 6.56347Z" fill="#D82122"/>
<path d="M25.7964 20.8254C17.1054 20.5282 20.0025 10.426 20.151 9.83179C20.151 9.90607 20.7453 17.7798 25.7964 20.8254Z" fill="#D82122"/>
<path d="M34.3408 2.62634C27.6555 6.63749 28.9926 16.2197 28.9926 16.2197C22.6044 6.48893 33.8209 2.84919 34.3408 2.62634Z" fill="#D82122"/>
<path d="M23.3499 23.499C23.7956 23.8705 24.2413 24.5389 23.7214 25.5046C23.4243 26.0245 22.9786 25.9503 22.31 25.6532C21.4186 25.2075 16.0704 22.0877 11.2422 18.8936C16.739 20.8249 22.31 22.9047 23.2013 23.3504C23.2013 23.3504 23.2757 23.4248 23.3499 23.499Z" fill="white"/>
</svg>
