<svg width="60" height="60" viewBox="0 0 60 60" fill="none" xmlns="http://www.w3.org/2000/svg">
<path d="M15.8501 32.8042L17.2762 22.0633L4.88617 13.4615L16.2066 17.2944L18.8807 13.1941L28.6412 7.13281L50.1678 18.988L51.2819 37.0828L41.6998 50.4088L34.1231 51.5676L38.0452 44.392V37.484L35.1928 32.0911L32.2958 30.1747L27.8389 34.7652V39.6232L24.3626 42.8767L19.9504 43.4115L17.9893 44.5258L14.7804 43.5007L13.4434 38.6873L15.8501 35.3001V32.8042Z" fill="white"/>
<path d="M35.6368 13.3722C33.2748 12.8819 30.6898 13.0157 30.6898 13.0157C30.6898 13.0157 29.8429 16.9377 24.5839 17.9627C24.6285 17.9627 31.5365 20.3249 35.6368 13.3722Z" fill="#94A6C3"/>
<path d="M37.778 48.938C40.6303 46.7095 42.7696 43.6344 43.7501 40.158C43.7947 40.0243 44.1958 39.8015 44.4632 39.6232C44.9089 39.3558 45.3546 39.1329 45.4437 38.7763C45.622 37.7513 45.7111 36.6817 45.7111 35.612C45.7111 35.2109 45.31 34.8098 44.9089 34.4086C44.5969 34.1412 44.285 33.8293 44.285 33.6064C43.8393 29.5507 41.9674 25.7623 38.9813 22.9991L38.6693 23.3111C41.5662 26.0298 43.4381 29.729 43.8393 33.651C43.8838 34.0076 44.2403 34.3641 44.5969 34.7207C44.9089 34.9881 45.2655 35.3891 45.2655 35.5674C45.2655 36.5925 45.1763 37.6176 44.998 38.6427C44.9534 38.821 44.5524 38.9992 44.2403 39.1775C43.7946 39.4003 43.3936 39.6232 43.3044 39.9797C42.2348 43.768 39.7835 47.0661 36.53 49.2054C37.1094 47.9574 38.9367 43.9018 39.9172 41.8516L39.739 35.2555L34.0787 29.7735L30.8698 30.2192L27.3489 35.924C27.3489 35.924 28.9979 38.0187 26.6804 40.4699C24.4074 42.8766 22.6247 43.4115 22.6247 43.4115L20.9756 42.5201C21.4659 41.8961 22.4464 40.9602 23.204 40.3363C24.4965 39.2666 25.789 39.1775 25.789 38.0187C25.8336 35.612 23.2486 36.2805 23.2486 36.2805L22.3126 37.1719L21.9116 40.4699L19.9506 42.9213L19.7277 42.8766L16.5187 42.1635C16.5187 42.1635 18.4798 41.1385 18.7918 39.9797C19.1037 38.8655 18.1678 35.1663 18.1232 34.9434C18.1678 34.9881 19.0592 35.7457 19.4603 36.9936C20.1734 35.0326 21.1093 33.1607 21.3768 32.9824C21.6442 32.8042 25.2542 30.8878 25.2542 30.8878L24.0509 34.0521L24.9422 33.5619L27.0815 28.3028C27.0815 28.3028 29.1762 27.2777 30.7361 27.2777C33.5439 27.2332 37.6888 23.8013 35.8169 17.6509C36.3518 17.8738 45.622 22.5089 47.2265 31.6009C48.4298 38.5981 44.4632 45.1497 37.778 48.938Z" fill="#94A6C3"/>
<path d="M27.1701 14.3533C28.1952 13.1499 27.794 11.3672 27.794 11.3672L24.808 15.7795C24.7634 15.7795 25.8776 15.824 27.1701 14.3533Z" fill="#1B314F"/>
<path d="M17.1433 38.4649L17.4999 36.6821C17.4999 36.6821 16.0291 39.2671 15.8954 39.6236C15.7617 40.0248 15.9845 40.7379 16.5639 40.6933C17.1433 40.6488 17.8564 39.8019 17.8564 39.178C17.8564 38.3757 17.1433 38.4649 17.1433 38.4649Z" fill="#1B314F"/>
<path d="M43.6161 10.1193C43.6161 10.1193 45.8446 10.2084 48.1621 10.4758C42.9476 6.37552 38.0005 5.17218 33.9893 5.17218C28.4628 5.17218 24.7192 7.44517 24.4963 7.57887L26.2345 4.81563C26.2345 4.81563 19.2817 4.1471 16.8305 11.5009C16.2065 9.941 15.6271 7.66801 15.6271 7.66801C15.6271 7.66801 12.0171 10.8324 13.7107 16.0915C9.56583 14.5761 3.63822 12.4814 3.41538 12.4369C3.1034 12.3922 3.01426 12.526 3.01426 12.526C3.01426 12.526 2.92512 12.6597 3.19254 12.8825C3.68279 13.2836 13.0421 20.1918 15.0923 21.5288C14.6466 23.1333 14.6466 23.8909 15.0923 24.6486C15.7162 25.6736 15.7608 26.2085 15.6717 26.9662C15.5826 27.7238 14.7803 34.2754 14.6021 35.0777C14.4238 35.8799 12.5519 38.7323 12.6411 39.579C12.7302 40.4259 13.889 44.0359 14.9141 44.437C15.6717 44.7044 17.5436 45.2838 18.7915 45.2838C19.2372 45.2838 19.6384 45.1946 19.8166 45.0164C20.5742 44.3479 20.797 44.2141 21.332 44.2141C21.3765 44.2141 21.4211 44.2141 21.4656 44.2141C21.6885 44.2141 21.9559 44.2588 22.2678 44.2588C22.9809 44.2588 23.9169 44.125 24.5854 43.501C25.5659 42.5205 27.2595 41.1835 27.7943 40.5595C28.4629 39.7128 28.8195 38.554 28.6411 37.3952C28.5074 36.3256 29.0868 35.3896 29.7554 34.4537C30.6022 33.3394 32.162 31.3339 32.162 31.3339C35.2373 33.6515 37.1537 37.1723 37.1537 41.0943C37.1537 48.047 31.0924 53.6627 23.6049 53.6627C22.4461 53.6627 21.332 53.529 20.2177 53.2616C23.6495 54.4649 26.5464 54.8661 28.9086 54.8661C33.9448 54.8661 36.6189 53.0387 36.6189 53.0387C36.6189 53.0387 35.6829 54.2421 34.1676 55.6237C34.2122 55.6237 34.2122 55.6237 34.2122 55.6237C42.5465 54.4649 46.6022 47.6013 46.6022 47.6013C46.6022 47.6013 46.2902 49.8298 45.8891 51.3451C56.9866 43.0108 55.1148 32.5818 55.0702 32.2253C55.1594 32.3589 56.2735 33.696 56.853 34.4091C58.6357 16.0469 43.6161 10.1193 43.6161 10.1193ZM26.5464 39.4454C26.3681 39.6682 25.6105 40.3367 25.0756 40.8269C24.5409 41.3172 23.9614 41.8074 23.5158 42.2531C23.3375 42.4314 22.9809 42.5205 22.4461 42.5205C22.2678 42.5205 22.0896 42.5205 21.9558 42.5205C21.8668 42.5205 21.7776 42.5205 21.6885 42.5205C21.5994 42.5205 21.5548 42.5205 21.5101 42.5205C21.3765 42.5205 21.2427 42.5205 21.1091 42.5205C21.7776 41.6292 23.7386 39.579 24.4071 39.1333C25.2094 38.5985 25.6104 38.0637 25.1202 37.1278C24.6299 36.1918 23.3375 36.4147 23.3375 36.4147C23.3375 36.4147 24.0952 36.1027 24.7637 36.1027C23.9169 35.8799 22.8473 36.1027 22.357 36.593C21.8222 37.0832 21.9113 38.8214 21.6885 39.9356C21.4656 41.0943 20.7079 41.6738 19.5492 42.7434C18.9252 43.3228 18.4796 43.501 18.123 43.501C17.3653 43.3674 16.4739 43.1445 15.85 42.9217C15.4043 42.3423 14.7357 40.4259 14.5574 39.6236C14.6912 39.178 15.226 38.242 15.4934 37.7071C16.0283 36.6821 16.3403 36.1027 16.4293 35.5679C16.6076 34.8102 17.187 30.1305 17.4099 28.1695C17.9893 28.9272 18.7915 30.1751 18.6132 30.9773C19.9058 29.15 18.9698 27.3672 18.5241 26.6542C18.123 25.9411 17.5882 24.5149 18.0339 22.9995C18.4796 21.4842 20.084 17.2948 20.084 17.2948C20.084 17.2948 20.6189 18.2308 21.3765 18.0525C22.1342 17.8742 28.24 8.69309 28.24 8.69309C28.24 8.69309 29.8891 12.3031 28.1509 14.9327C26.3681 17.5622 24.6299 18.0525 24.6299 18.0525C24.6299 18.0525 27.0812 18.4982 29.3543 16.8491C30.2902 19.033 31.1815 21.3059 31.2262 21.618C31.0924 21.9299 29.3097 26.2085 29.1314 26.4759C29.0423 26.565 28.4183 26.7433 27.9726 26.8324C27.215 27.0553 26.7693 27.189 26.591 27.3227C26.279 27.5901 24.8528 31.5122 24.1842 33.4286C23.3821 33.6515 22.5798 34.0971 22.0004 34.9885C22.3125 34.7656 23.2929 34.632 24.0061 34.5428C24.6299 34.4982 26.5464 35.5233 27.0367 37.4397C27.0367 37.4843 27.0367 37.4843 27.0367 37.5289C27.1259 38.242 26.903 38.9105 26.5464 39.4454ZM22.357 39.9802C22.7581 39.4007 22.7135 38.4202 22.7582 38.1083C22.8027 37.7963 22.8918 37.2169 23.2484 37.1278C23.6049 37.0387 24.4518 37.1723 24.4518 37.7963C24.4518 38.3757 23.8278 38.5094 23.3821 38.9105C23.0701 39.2225 22.4461 39.891 22.357 39.9802ZM40.1398 31.4676C40.5854 29.1946 40.6301 27.2336 40.4963 25.6291C42.2345 27.9467 43.3042 30.7545 43.6161 33.6515C43.6607 34.008 44.0173 34.3646 44.3738 34.7211C44.6857 34.9885 45.0423 35.3451 45.0423 35.5679C45.0423 36.593 44.9532 37.618 44.7749 38.6431C44.7304 38.7768 44.3292 38.9997 44.0173 39.178C43.5716 39.4007 43.1705 39.6236 43.0813 39.9802C42.1009 43.4119 40.0061 46.4426 37.1982 48.5819C41.3432 44.2588 43.3487 37.1278 40.1398 31.4676ZM37.332 48.983C40.2289 46.7546 42.4573 43.6348 43.4378 40.1138C43.4824 39.9802 43.8836 39.7573 44.1509 39.579C44.5966 39.3562 45.0423 39.0888 45.1314 38.7323C45.3097 37.7071 45.3988 36.6375 45.3988 35.5679C45.3988 35.1668 44.9978 34.7656 44.5966 34.3646C44.3738 34.0971 44.0173 33.7851 44.0173 33.5623C43.6607 30.3088 42.3682 27.2336 40.3626 24.6931C39.4713 19.3449 35.9058 17.6959 35.8167 17.6513C35.9058 17.7851 38.2234 21.1277 36.6189 25.0497C34.9698 29.0163 30.7359 28.3924 30.3793 28.4369C30.0228 28.4369 28.6411 30.2196 26.903 33.5177C26.6802 33.4286 25.7442 33.2058 24.6745 33.384C25.4768 31.1556 26.6802 27.9912 26.903 27.7238C26.9921 27.6347 27.6607 27.4564 28.1064 27.3227C28.9531 27.0998 29.3543 26.9662 29.4879 26.7879C29.5771 26.6542 30.0228 25.6291 30.4684 24.5595C30.8695 24.5595 31.8946 24.4703 31.9838 24.4257C32.0729 24.3366 32.9197 22.1528 32.9197 21.8854C32.9197 21.6625 31.1815 17.3394 30.5131 15.6903C30.825 15.3338 31.137 14.8881 31.449 14.3979C40.5854 15.3784 47.7164 23.1333 47.7164 32.5372C47.7164 39.7573 43.4824 46.0415 37.332 48.983Z" fill="#1B314F"/>
<path d="M25.4796 24.9159C26.3265 23.9354 25.8808 22.1081 24.3209 21.7961C24.722 20.8602 25.3014 18.9883 25.3014 18.9883C25.3014 18.9883 20.7554 26.1192 20.3543 26.253C19.9531 26.3866 19.5521 24.8268 19.5521 24.8268C18.7052 28.0803 20.9783 28.5259 21.2457 27.5009C22.4936 27.1889 24.6329 25.8518 25.4796 24.9159Z" fill="#1B314F"/>
<path d="M21.6 26.6545L23.9175 22.688C23.9175 22.688 25.2546 23.3565 24.5861 24.4261C23.7393 25.674 21.6 26.6545 21.6 26.6545Z" fill="#FFD923"/>
<path d="M50.2561 45.0166C49.5875 45.9079 48.8299 46.8438 47.9385 47.7352C53.6878 36.6822 48.2059 26.5652 47.9831 26.1641C48.3842 26.5652 48.7853 27.0109 49.1418 27.412C53.5542 32.3145 54.089 39.6684 50.2561 45.0166Z" fill="#D82122"/>
<path d="M55.6044 30.7991C53.5987 25.4064 50.7463 20.8158 44.4622 16.671C38.4009 12.6598 31.8939 12.9717 31.5374 13.0163C31.4928 13.0163 31.4482 13.0163 31.4482 13.0163C31.671 12.9272 31.8939 12.8826 32.1167 12.8381C33.4984 12.3924 35.2811 12.0358 37.0639 11.813C41.7881 11.1445 46.5569 12.7489 49.8105 16.1807C49.855 16.2253 49.855 16.2253 49.8996 16.2698C53.5987 20.1918 55.5152 25.0944 55.6044 30.7991Z" fill="#D82122"/>
<path d="M43.036 8.73784C36.3953 7.48992 32.1167 8.11388 29.0415 9.27266C28.9524 8.91611 28.6404 8.20301 28.373 7.62362C27.4371 8.73784 26.4566 10.0749 25.8326 10.9217C24.139 12.0804 23.4259 13.1947 23.4259 13.1947C24.4064 9.85205 27.2588 7.35621 30.7351 6.73225C31.7156 6.55398 32.7853 6.46484 33.9441 6.46484C37.0192 6.50941 40.0945 7.26708 43.036 8.73784Z" fill="#D82122"/>
<path d="M18.4778 17.2949C13.2633 17.1166 15.0015 11.0553 15.0906 10.6987C15.0906 10.7433 15.4472 15.4675 18.4778 17.2949Z" fill="#D82122"/>
<path d="M23.6045 6.37549C19.5933 8.78218 20.3956 14.5315 20.3956 14.5315C16.5627 8.69304 23.2926 6.50919 23.6045 6.37549Z" fill="#D82122"/>
<path d="M17.0096 18.899C17.277 19.1219 17.5444 19.5229 17.2324 20.1024C17.0542 20.4143 16.7868 20.3698 16.3856 20.1915C15.8508 19.9241 12.6418 18.0522 9.74493 16.1357C13.043 17.2945 16.3856 18.5424 16.9204 18.8099C16.9204 18.8099 16.965 18.8545 17.0096 18.899Z" fill="white"/>
</svg>
