<svg width="74" height="90" viewBox="0 0 74 90" fill="none" xmlns="http://www.w3.org/2000/svg">
<mask id="mask0" style="mask-type:alpha" maskUnits="userSpaceOnUse" x="0" y="0" width="70" height="48">
<path d="M0 37.7414L47.6897 38.1264C47.6897 38.1264 58.2153 39.4636 67.2062 47.3604C67.7178 47.8062 69.7186 47.3604 69.7186 47.3604L69.4755 0L0 0.0810446V37.7414Z" fill="white"/>
</mask>
<g mask="url(#mask0)">
<path fill-rule="evenodd" clip-rule="evenodd" d="M59.5873 10.6676C53.9142 5.99739 46.1086 3.65723 36.1705 3.65723C22.8843 3.65723 16.9933 3.65723 11.4114 3.65723V7.11682C11.4114 7.11682 24.8496 7.11682 35.7146 7.11682C44.1635 7.11682 51.8121 8.85928 56.4823 12.8912C61.1525 16.9283 64.6931 22.9357 64.6931 30.3513C64.6931 37.5085 61.6286 42.8119 56.771 46.8236C51.9134 50.8353 43.2518 52.6031 34.58 52.6031C24.2316 52.6031 6.66016 52.6031 6.66016 52.6031V56.0627C6.66016 56.0627 30.4315 56.0576 34.7725 56.0576C45.2323 56.0576 53.4026 53.7833 59.2834 49.2448C65.1642 44.7012 68.1021 38.3139 68.1021 30.0727C68.1021 21.8112 65.2655 15.3428 59.5873 10.6676Z" fill="#1C1E1D"/>
<path fill-rule="evenodd" clip-rule="evenodd" d="M57.49 15.6821C53.9595 13.0025 49.9022 10.8447 38.4243 10.8447C26.0447 10.8498 24.5302 10.8447 19.3281 10.8447V14.2182C19.3281 14.2182 27.8733 14.1068 37.9988 14.2182C47.7849 14.3195 51.3762 15.4237 54.6686 17.8601C58.8829 20.9753 61.4966 24.8199 61.4966 30.1992C61.4966 35.386 58.8424 39.0584 54.6078 42.1735C50.277 45.3647 43.6567 45.4001 40.962 45.4609C39.9438 45.4862 26.7842 45.4609 26.7842 45.4609V48.8344C26.7842 48.8344 33.3336 48.9255 37.3808 48.8293C46.6705 48.6216 52.1816 48.0695 57.3127 44.2554C62.1298 40.6843 64.6776 35.9685 64.6776 29.9966C64.6776 22.1201 60.7368 18.1489 57.49 15.6821Z" fill="#1C1E1D"/>
<path fill-rule="evenodd" clip-rule="evenodd" d="M55.7834 20.1346C53.1343 18.4732 50.8093 17.3538 39.843 17.3538C28.6993 17.3538 30.8014 17.3538 26.116 17.3538V19.5724C26.116 19.5724 30.3506 19.5724 39.4631 19.5724C49.1783 19.5724 52.8608 21.2996 53.9751 21.9834C56.1583 23.3207 59.0353 25.4987 59.0353 29.9359C59.0353 32.7725 57.3587 36.3334 54.8818 37.7314C52.6227 39.0028 48.4945 40.1425 41.2207 40.1425C40.3039 40.1425 -3.61719 40.1425 -3.61719 40.1425V42.3611C-3.61719 42.3611 37.7409 42.3611 41.3879 42.3611C50.1559 42.3611 53.1647 41.3885 56.2545 39.6815C59.3545 37.9745 61.4211 34.4643 61.4211 29.9562C61.4211 24.9213 58.6099 21.9024 55.7834 20.1346Z" fill="#1C1E1D"/>
</g>
<path fill-rule="evenodd" clip-rule="evenodd" d="M64.5131 44.6099C58.84 39.9346 51.0293 37.5995 41.0963 37.5995C27.805 37.5995 30.1198 37.5945 24.5328 37.5945V41.0541C24.5328 41.0541 29.7703 41.0541 40.6354 41.0541C49.0843 41.0541 56.7379 42.7965 61.4081 46.8285C66.0783 50.8655 69.6139 56.873 69.6139 64.2936C69.6139 71.4458 66.5544 76.7491 61.6968 80.7609C56.8392 84.7726 48.1725 86.5403 39.5007 86.5403C29.1574 86.5403 11.5859 86.5403 11.5859 86.5403V89.9999C11.5859 89.9999 35.3523 89.9949 39.6983 89.9949C50.1581 89.9949 58.3233 87.7256 64.2041 83.1821C70.0849 78.6436 73.0279 72.2512 73.0279 64.015C73.0279 55.7485 70.1913 49.2801 64.5131 44.6099Z" fill="#1C1E1D"/>
<path fill-rule="evenodd" clip-rule="evenodd" d="M62.412 49.6196C58.8815 46.9451 54.8242 44.7822 43.3463 44.7822C30.9617 44.7873 22.5888 44.7822 17.3867 44.7822V48.1557C17.3867 48.1557 32.7903 48.0443 42.9208 48.1557C52.707 48.257 56.2932 49.3612 59.5856 51.7976C63.805 54.9179 66.4187 58.7574 66.4187 64.1367C66.4187 69.3235 63.7645 72.9959 59.5299 76.1161C55.1991 79.3021 48.5788 79.3427 45.879 79.4035C44.8608 79.4237 31.7012 79.4035 31.7012 79.4035V82.7719C31.7012 82.7719 38.2506 82.8631 42.3029 82.7719C51.5875 82.5591 57.1036 82.007 62.2348 78.1979C67.0468 74.6218 69.5946 69.906 69.5946 63.9341C69.5946 56.0626 65.6589 52.0864 62.412 49.6196Z" fill="#1C1E1D"/>
<path fill-rule="evenodd" clip-rule="evenodd" d="M22.9453 61.0671H47.2739V59.1829H22.9453V61.0671Z" fill="#1C1E1D"/>
<path fill-rule="evenodd" clip-rule="evenodd" d="M32.9805 67.657H47.1329V66.0361H32.9805V67.657Z" fill="#1C1E1D"/>
<path fill-rule="evenodd" clip-rule="evenodd" d="M11.5859 61.0671H18.7938V59.1829H11.5859V61.0671Z" fill="#1C1E1D"/>
<path fill-rule="evenodd" clip-rule="evenodd" d="M7.08984 67.7886H28.982V65.9043H7.08984V67.7886Z" fill="#1C1E1D"/>
<path fill-rule="evenodd" clip-rule="evenodd" d="M12.4844 19.4254H21.0143V17.8704H12.4844V19.4254Z" fill="#1C1E1D"/>
<path fill-rule="evenodd" clip-rule="evenodd" d="M6.54688 32.0378H26.0837V30.2295H6.54688V32.0378Z" fill="#1C1E1D"/>
<path fill-rule="evenodd" clip-rule="evenodd" d="M7.08984 82.5389H27.6904V80.2798H7.08984V82.5389Z" fill="#1C1E1D"/>
<path fill-rule="evenodd" clip-rule="evenodd" d="M1.95312 89.8632H7.10452V86.5911H1.95312V89.8632Z" fill="#1C1E1D"/>
<path fill-rule="evenodd" clip-rule="evenodd" d="M14.832 26.5168H47.1789V24.7085H14.832V26.5168Z" fill="#1C1E1D"/>
<path fill-rule="evenodd" clip-rule="evenodd" d="M31.0039 32.0378H46.5645V30.2295H31.0039V32.0378Z" fill="#1C1E1D"/>
<path fill-rule="evenodd" clip-rule="evenodd" d="M60.7053 54.4112C58.0511 52.8055 55.7261 51.7266 44.7648 51.7266C33.6212 51.7266 31.9547 51.7266 27.2744 51.7266V53.8692C27.2744 53.8692 35.2674 53.8692 44.3799 53.8692C54.0951 53.8692 57.7826 55.5357 58.897 56.1992C61.0751 57.4909 63.9572 59.5879 63.9572 63.8731C63.9572 66.6134 62.2806 70.0477 59.7986 71.3951C57.5395 72.6259 53.4113 73.7251 46.1375 73.7251C45.2207 73.7251 1.30469 73.7251 1.30469 73.7251V75.8677C1.30469 75.8677 42.6627 75.8626 46.3047 75.8626C55.0778 75.8626 58.0865 74.9256 61.1764 73.2794C64.2713 71.6281 66.3379 68.2394 66.3379 63.8883C66.3379 59.0307 63.5317 56.1182 60.7053 54.4112Z" fill="#1C1E1D"/>
</svg>
