<svg width="72" height="72" viewBox="0 0 72 72" fill="none" xmlns="http://www.w3.org/2000/svg">
<path d="M36 0C16.0364 0 0 16.0364 0 36C0 55.9636 16.0364 72 36 72C55.9636 72 72 55.9636 72 36C71.6727 16.0364 55.6364 0 36 0ZM39.2727 41.8909C40.2545 42.8727 40.9091 43.8545 40.9091 45.4909C40.9091 48.1091 38.6182 50.4 36 50.4C34.6909 50.4 33.3818 49.7455 32.4 48.7636C30.7636 47.4545 28.8 46.4727 26.1818 46.4727C23.5636 46.4727 21.6 47.4545 19.9636 48.7636L19.6364 49.0909C18.6545 49.7455 17.6727 50.4 16.3636 50.4C15.0545 50.4 14.0727 50.0727 13.0909 49.0909C12.7636 48.7636 12.7636 48.7636 12.4364 48.4364C12.4364 48.4364 12.4364 48.4364 12.4364 48.1091L12.1091 47.7818C12.1091 47.4545 11.7818 47.1273 11.7818 46.8C11.7818 46.4727 11.4545 45.8182 11.4545 45.4909C11.4545 44.8364 11.4545 44.5091 11.7818 44.1818C11.7818 43.8545 12.1091 43.5273 12.1091 43.2C12.1091 43.2 12.1091 42.8727 12.4364 42.8727C12.4364 42.8727 12.4364 42.8727 12.4364 42.5455C13.0909 42.5455 13.0909 42.5455 13.0909 42.2182L13.4182 41.8909C14.7273 40.2545 15.7091 38.2909 15.7091 36C15.7091 33.7091 15.0545 31.7455 13.4182 30.1091C12.7636 29.1273 12.1091 27.8182 12.1091 26.1818C12.1091 23.5636 14.4 21.2727 17.0182 21.2727C19.6364 21.2727 21.6 23.5636 21.6 26.1818C21.6 27.4909 20.9455 28.8 19.9636 29.7818C18.6545 31.4182 17.6727 33.7091 17.6727 36C17.6727 38.2909 18.6545 40.5818 19.9636 42.2182L20.2909 42.5455C21.9273 43.8545 23.8909 44.8364 26.1818 44.8364C28.4727 44.8364 30.4364 44.1818 32.0727 42.5455C32.0727 42.2182 32.4 42.2182 32.7273 41.8909C34.0364 40.2545 35.0182 38.2909 35.0182 36C35.0182 33.7091 34.3636 31.7455 32.7273 30.1091C31.7455 29.1273 31.0909 27.8182 31.0909 26.1818C31.0909 23.5636 33.3818 21.2727 36 21.2727C38.6182 21.2727 40.9091 23.5636 40.9091 26.1818C40.9091 27.4909 40.2545 28.8 39.2727 29.7818C37.9636 31.4182 36.9818 33.3818 36.9818 36C36.9818 38.2909 37.6364 40.2545 39.2727 41.8909ZM45.4909 40.5818C42.8727 40.5818 40.5818 38.2909 40.5818 35.6727C40.5818 33.0545 42.8727 30.7636 45.4909 30.7636C48.1091 30.7636 50.4 33.0545 50.4 35.6727C50.4 38.6182 48.1091 40.5818 45.4909 40.5818ZM58.2545 41.8909C58.5818 42.2182 58.5818 42.2182 58.2545 41.8909C58.5818 42.5455 58.9091 42.5455 58.9091 42.5455C58.9091 42.5455 58.9091 42.5455 58.9091 42.8727L59.2364 43.2C59.2364 43.5273 59.5636 43.8545 59.5636 44.1818C59.5636 44.5091 59.8909 45.1636 59.8909 45.4909C59.8909 46.1455 59.8909 46.4727 59.5636 46.8C59.5636 47.1273 59.2364 47.4545 59.2364 47.7818C59.2364 47.7818 59.2364 48.1091 58.9091 48.1091C58.9091 48.1091 58.9091 48.1091 58.9091 48.4364C58.5818 48.7636 58.5818 48.7636 58.2545 49.0909C57.2727 49.7455 56.2909 50.4 54.9818 50.4C53.6727 50.4 52.6909 50.0727 51.7091 49.0909C51.3818 48.7636 51.3818 48.7636 51.0545 48.4364C51.0545 48.4364 51.0545 48.4364 51.0545 48.1091L50.7273 47.7818C50.7273 47.4545 50.4 47.1273 50.4 46.8C50.4 46.4727 50.0727 45.8182 50.0727 45.4909C50.0727 44.8364 50.0727 44.5091 50.4 44.1818C50.4 43.8545 50.7273 43.5273 50.7273 43.2C50.7273 43.2 50.7273 42.8727 51.0545 42.8727C51.0545 42.8727 51.0545 42.8727 51.0545 42.5455L51.3818 42.2182L51.7091 41.8909C53.0182 40.2545 54 38.2909 54 36C54 33.7091 53.3455 31.7455 51.7091 30.1091C50.7273 29.1273 50.0727 27.8182 50.0727 26.5091C50.0727 23.8909 52.3636 21.6 54.9818 21.6C57.6 21.6 59.8909 23.8909 59.8909 26.5091C59.8909 27.8182 59.2364 29.1273 58.2545 30.1091C56.9454 31.7455 55.9636 33.7091 55.9636 36.3273C55.9636 38.2909 56.9454 40.2545 58.2545 41.8909Z" fill="#F8E19A"/>
</svg>
