<svg width="217" height="216" viewBox="0 0 217 216" fill="none" xmlns="http://www.w3.org/2000/svg">
<path d="M108.015 97.8109C135.024 97.8109 156.92 75.915 156.92 48.9056C156.92 21.8959 135.024 0 108.015 0C81.0049 0 59.1094 21.8959 59.1094 48.9056C59.1094 75.915 81.0049 97.8109 108.015 97.8109Z" fill="#88BDF3"/>
<path d="M108.015 215.999C135.024 215.999 156.92 194.103 156.92 167.093C156.92 140.084 135.024 118.188 108.015 118.188C81.0049 118.188 59.1094 140.084 59.1094 167.093C59.1094 194.103 81.0049 215.999 108.015 215.999Z" fill="#3075EE"/>
<path d="M167.098 156.905C194.108 156.905 216.003 135.009 216.003 108C216.003 80.9898 194.108 59.0942 167.098 59.0942C140.088 59.0942 118.193 80.9898 118.193 108C118.193 135.009 140.088 156.905 167.098 156.905Z" fill="#5795F1"/>
<path d="M48.9053 156.905C75.9151 156.905 97.8106 135.009 97.8106 108C97.8106 80.9898 75.9151 59.0942 48.9053 59.0942C21.8956 59.0942 0 80.9898 0 108C0 135.009 21.8956 156.905 48.9053 156.905Z" fill="#205FEC"/>
<path fill-rule="evenodd" clip-rule="evenodd" d="M96.4366 96.4352C78.7155 92.1391 64.7666 78.1899 60.4702 60.4688C78.1914 64.7651 92.1405 78.714 96.4366 96.4352Z" fill="#134BEF"/>
<path fill-rule="evenodd" clip-rule="evenodd" d="M60.4702 155.529C64.7666 137.808 78.7155 123.859 96.4366 119.563C92.1405 137.284 78.1914 151.233 60.4702 155.529Z" fill="#0932E8"/>
<path fill-rule="evenodd" clip-rule="evenodd" d="M119.557 119.563C137.278 123.859 151.227 137.808 155.524 155.529C137.802 151.233 123.853 137.284 119.557 119.563Z" fill="#164BEA"/>
<path fill-rule="evenodd" clip-rule="evenodd" d="M155.524 60.4688C151.227 78.1899 137.278 92.1391 119.557 96.4352C123.853 78.714 137.802 64.7651 155.524 60.4688Z" fill="#3170F1"/>
</svg>
