<svg width="80" height="90" viewBox="0 0 80 90" fill="none" xmlns="http://www.w3.org/2000/svg">
<path d="M48.7976 26.1296L41.4817 21.862C40.7973 21.5174 40.0416 21.3379 39.2753 21.3379C38.509 21.3379 37.7534 21.5174 37.069 21.862L29.7531 26.1296C28.1854 27.0586 28.1564 28.5682 29.7531 29.4682L37.069 33.7938C37.7492 34.1523 38.5065 34.3397 39.2753 34.3397C40.0442 34.3397 40.8015 34.1523 41.4817 33.7938L48.7976 29.4682C49.1426 29.346 49.4413 29.1198 49.6526 28.8209C49.8638 28.522 49.9773 28.1649 49.9773 27.7989C49.9773 27.4328 49.8638 27.0758 49.6526 26.7769C49.4413 26.4779 49.1426 26.2518 48.7976 26.1296Z" fill="#4231C8"/>
<path d="M77.3393 20.846L41.9792 0.524101C41.2948 0.179495 40.5391 0 39.7728 0C39.0065 0 38.2509 0.179495 37.5665 0.524101L2.20638 20.846C1.5675 21.2708 1.03577 21.8379 0.652954 22.5028C0.270133 23.1677 0.0466337 23.9123 0 24.6781L0 65.3219C0.0466337 66.0877 0.270133 66.8323 0.652954 67.4972C1.03577 68.1621 1.5675 68.7292 2.20638 69.154L37.5665 89.4759C38.2509 89.8205 39.0065 90 39.7728 90C40.5391 90 41.2948 89.8205 41.9792 89.4759L77.3393 69.154C77.9782 68.7292 78.5099 68.1621 78.8927 67.4972C79.2755 66.8323 79.499 66.0877 79.5457 65.3219V24.6781C79.499 23.9123 79.2755 23.1677 78.8927 22.5028C78.5099 21.8379 77.9782 21.2708 77.3393 20.846ZM61.6043 30.2811L41.4857 42.1259C40.8055 42.4844 40.0482 42.6718 39.2793 42.6718C38.5104 42.6718 37.7531 42.4844 37.0729 42.1259L24.2992 34.6358C22.7315 33.6778 21.396 34.4326 21.396 36.2616V58.935C21.4511 59.2939 21.398 59.6611 21.2436 59.9897C21.0892 60.3184 20.8405 60.5936 20.5292 60.7805C20.2178 60.9673 19.8579 61.0572 19.4953 61.0387C19.1326 61.0203 18.7837 60.8943 18.4929 60.6769L16.3156 59.5447C15.6589 59.148 15.1093 58.5967 14.7146 57.9389C14.3199 57.281 14.0921 56.5366 14.0511 55.7706V31.1521C14.0978 30.3863 14.3213 29.6417 14.7041 28.9768C15.0869 28.3119 15.6186 27.7448 16.2575 27.32L37.0439 15.243C37.7283 14.8983 38.484 14.7189 39.2503 14.7189C40.0166 14.7189 40.7722 14.8983 41.4566 15.243L61.5753 26.8555C61.9547 26.9516 62.2916 27.1707 62.5333 27.4786C62.775 27.7865 62.9079 28.1657 62.9112 28.5571C62.9145 28.9485 62.788 29.33 62.5516 29.6419C62.3152 29.9538 61.9821 30.1786 61.6043 30.2811Z" fill="#4231C8"/>
</svg>
