<svg width="90" height="90" viewBox="0 0 90 90" fill="none" xmlns="http://www.w3.org/2000/svg">
<path fill-rule="evenodd" clip-rule="evenodd" d="M45.3385 89.9987C36.4242 90.0658 27.6909 87.4836 20.2463 82.5799C12.8017 77.6761 6.98127 70.6717 3.52338 62.4551C0.0654809 54.2385 -0.874119 45.1802 0.823813 36.4289C2.52175 27.6776 6.78066 19.6277 13.0603 13.3005C19.34 6.9732 27.3575 2.6538 36.0958 0.889857C44.834 -0.874084 53.8993 -0.00323131 62.1418 3.39254C70.3842 6.78832 77.4323 12.5556 82.3921 19.963C87.3519 27.3704 89.9998 36.0842 90.0001 44.9987C90.0303 56.8841 85.3453 68.2961 76.9728 76.7321C68.6003 85.168 57.2238 89.9392 45.3385 89.9987ZM45.3385 6.67658C37.7471 6.62167 30.3104 8.82268 23.9717 13.0003C17.633 17.178 12.6778 23.1442 9.73467 30.1421C6.79153 37.1399 5.99302 44.854 7.44045 52.3064C8.88787 59.7587 12.516 66.6131 17.8647 72.0005C23.2133 77.3878 30.0416 81.0656 37.4832 82.5667C44.9249 84.0678 52.6448 83.3249 59.6637 80.4323C66.6826 77.5397 72.6843 72.6276 76.9075 66.3192C81.1307 60.0108 83.3853 52.5903 83.3851 44.9987C83.409 34.8754 79.417 25.1559 72.2846 17.9719C65.1522 10.7878 55.4617 6.72564 45.3385 6.67658ZM46.9441 38.8248L55.5661 28.2766C55.8732 27.9002 56.0683 27.445 56.1293 26.9631C56.1902 26.4811 56.1144 25.9917 55.9106 25.5507C55.7068 25.1097 55.3832 24.7351 54.9766 24.4692C54.5701 24.2032 54.097 24.0569 53.6113 24.0469C53.2384 24.0488 52.8703 24.1318 52.5327 24.2903C52.1951 24.4488 51.8962 24.6791 51.6565 24.9649L43.6357 34.7568L35.6149 24.9649C35.3796 24.6741 35.0814 24.4401 34.7429 24.2811C34.4043 24.1221 34.0341 24.0422 33.6601 24.0469H27.0433C26.5551 24.0513 26.0782 24.1942 25.6681 24.4591C25.258 24.7239 24.9316 25.0996 24.7268 25.5428C24.522 25.9859 24.4473 26.4782 24.5113 26.9622C24.5753 27.4462 24.7755 27.9019 25.0885 28.2766L37.0189 42.8568L21.78 61.5046C21.5542 61.7602 21.3816 62.0585 21.2725 62.3817C21.1633 62.7049 21.1198 63.0465 21.1445 63.3867C21.1691 63.727 21.2614 64.0591 21.416 64.3632C21.5706 64.6673 21.7842 64.9373 22.0446 65.1577C22.3049 65.3782 22.6067 65.5445 22.9321 65.6469C23.2575 65.7492 23.6001 65.7854 23.9397 65.7536C24.2794 65.7219 24.6093 65.6228 24.9101 65.4618C25.2109 65.3009 25.4765 65.0816 25.6914 64.8167L40.3273 46.9428L46.9441 38.8248ZM66.9421 24.0469C66.5693 24.0496 66.2015 24.1327 65.8641 24.2912C65.5266 24.4497 65.2275 24.6798 64.9873 24.9649L50.4073 42.8568L43.7905 50.9568L35.1685 61.5046C34.7293 62.023 34.514 62.6946 34.5701 63.3718C34.6261 64.049 34.9488 64.6764 35.4673 65.1156C35.9857 65.5547 36.6574 65.7701 37.3345 65.7141C38.0117 65.6581 38.6389 65.3352 39.0781 64.8167L47.0989 55.0428L55.1179 64.8167C55.3537 65.1073 55.6522 65.3407 55.991 65.4996C56.3298 65.6586 56.7002 65.7391 57.0745 65.7347H63.6787C64.1675 65.7318 64.6453 65.5898 65.0563 65.3252C65.4673 65.0606 65.7945 64.6843 65.9995 64.2406C66.2046 63.7969 66.279 63.3039 66.2142 62.8194C66.1494 62.3349 65.948 61.8788 65.6335 61.5046L53.7049 46.9428L68.9437 28.2766C69.2468 27.8948 69.437 27.436 69.4925 26.9516C69.548 26.4673 69.4666 25.977 69.2577 25.5366C69.0487 25.0962 68.7204 24.7233 68.3102 24.4599C67.9 24.1966 67.4241 24.0535 66.9367 24.0469" fill="#FFBE40"/>
</svg>
